<svg width="137" height="32" viewBox="0 0 137 32" fill="none" xmlns="http://www.w3.org/2000/svg">
<path d="M32.9688 7.80566H36.0911V22.9675H32.9688V7.80566Z" fill="#282938"/>
<path d="M37.8394 17.7742C37.8394 16.6833 38.1606 15.6171 38.7624 14.7105C39.3642 13.804 40.2194 13.0979 41.2197 12.6819C42.2199 12.2659 43.3202 12.1587 44.381 12.3738C45.4417 12.589 46.4153 13.1167 47.1782 13.8903C47.9411 14.6638 48.459 15.6483 48.6663 16.7189C48.8736 17.7896 48.761 18.8981 48.3426 19.9042C47.9242 20.9102 47.219 21.7683 46.3163 22.3698C45.4137 22.9713 44.3542 23.2891 43.2722 23.2829C42.5545 23.2885 41.843 23.1496 41.1793 22.8744C40.5156 22.5992 39.913 22.1931 39.407 21.6801C38.901 21.167 38.5017 20.5572 38.2325 19.8865C37.9633 19.2158 37.8296 18.4976 37.8394 17.7742ZM45.666 17.7742C45.6537 17.3039 45.5042 16.8477 45.2361 16.4627C44.968 16.0776 44.5932 15.7808 44.1587 15.6093C43.7241 15.4379 43.2491 15.3995 42.793 15.4987C42.3369 15.598 41.9199 15.8307 41.5943 16.1676C41.2686 16.5046 41.0487 16.9309 40.9621 17.3931C40.8755 17.8553 40.926 18.3331 41.1073 18.7666C41.2886 19.2001 41.5926 19.57 41.9814 19.8302C42.3702 20.0905 42.8263 20.2293 43.293 20.2295C43.6108 20.2357 43.9263 20.1758 44.22 20.0536C44.5137 19.9312 44.7793 19.7492 45 19.5188C45.2208 19.2884 45.392 19.0145 45.503 18.7143C45.614 18.4141 45.6624 18.0941 45.6452 17.7742H45.666Z" fill="#282938"/>
<path d="M61.0585 12.5807V22.4543C61.0585 25.9378 58.3524 27.4173 55.6152 27.4173C54.6497 27.4972 53.6813 27.3038 52.8189 26.859C51.9565 26.414 51.2345 25.7353 50.7339 24.8991L53.3671 23.3672C53.5805 23.8009 53.9199 24.1587 54.3401 24.3931C54.7604 24.6274 55.2414 24.727 55.7193 24.6788C56.0236 24.7165 56.3326 24.6861 56.6239 24.5895C56.9153 24.4929 57.1819 24.3327 57.4046 24.1201C57.6274 23.9076 57.8008 23.648 57.9125 23.36C58.0241 23.072 58.0713 22.7628 58.0506 22.4543V21.4994C57.6873 21.9436 57.2262 22.2962 56.7041 22.5294C56.182 22.7625 55.6131 22.8697 55.0428 22.8425C53.6626 22.8425 52.339 22.2898 51.3631 21.3059C50.3872 20.322 49.8389 18.9876 49.8389 17.5962C49.8389 16.2048 50.3872 14.8704 51.3631 13.8865C52.339 12.9026 53.6626 12.3498 55.0428 12.3498C55.6131 12.3227 56.182 12.4299 56.7041 12.663C57.2262 12.8961 57.6873 13.2488 58.0506 13.6929V12.6437L61.0585 12.5807ZM58.0506 17.5647C58.0713 17.0627 57.9427 16.566 57.6812 16.1382C57.4196 15.7106 57.0372 15.3715 56.583 15.1647C56.1288 14.9579 55.6235 14.8928 55.1323 14.9778C54.6412 15.0629 54.1864 15.294 53.8266 15.6416C53.4668 15.9893 53.2184 16.4375 53.1132 16.9286C53.0081 17.4198 53.0512 17.9314 53.2368 18.3977C53.4224 18.864 53.7421 19.2636 54.1548 19.5452C54.5675 19.8268 55.0543 19.9776 55.5528 19.9781C55.878 20.0016 56.2045 19.9562 56.5111 19.8447C56.8179 19.7332 57.098 19.5581 57.3334 19.3307C57.5687 19.1032 57.7542 18.8286 57.8778 18.5244C58.0013 18.2202 58.0602 17.8933 58.0506 17.5647Z" fill="#282938"/>
<path d="M62.8177 17.7743C62.8177 16.6843 63.1384 15.6189 63.7393 14.7128C64.3401 13.8066 65.1942 13.1005 66.1932 12.684C67.1922 12.2673 68.2914 12.1588 69.3517 12.3723C70.4118 12.5857 71.3854 13.1114 72.1492 13.8828C72.9129 14.6543 73.4325 15.6367 73.6421 16.706C73.8519 17.7753 73.7421 18.8832 73.3269 19.8896C72.9118 20.896 72.2099 21.7556 71.3099 22.3596C70.41 22.9637 69.3526 23.285 68.2714 23.2829C67.5524 23.2899 66.8392 23.1521 66.1737 22.8777C65.5082 22.6032 64.9038 22.1976 64.3958 21.6845C63.8878 21.1714 63.4866 20.5613 63.2156 19.8898C62.9446 19.2184 62.8094 18.4991 62.8177 17.7743ZM70.6444 17.7743C70.6321 17.3035 70.4823 16.8469 70.2137 16.4617C69.9451 16.0765 69.5697 15.7796 69.1346 15.6085C68.6994 15.4374 68.2239 15.3995 67.7676 15.4996C67.3111 15.5998 66.8943 15.8335 66.569 16.1715C66.2438 16.5094 66.0247 16.9367 65.9393 17.3996C65.8539 17.8625 65.9059 18.3407 66.0887 18.774C66.2716 19.2072 66.5773 19.5765 66.9673 19.8354C67.3575 20.0943 67.8147 20.2315 68.2818 20.2296C68.5996 20.2358 68.9151 20.1759 69.2088 20.0536C69.5025 19.9313 69.7681 19.7493 69.9888 19.5188C70.2096 19.2884 70.3808 19.0145 70.4918 18.7144C70.6028 18.4142 70.6512 18.0942 70.634 17.7743H70.6444Z" fill="#282938"/>
<path d="M75.1719 9.7993C75.1719 9.4299 75.2805 9.06888 75.4841 8.76168C75.6877 8.45456 75.977 8.21513 76.3155 8.07381C76.654 7.93245 77.0265 7.89546 77.3859 7.96753C77.7453 8.03959 78.0754 8.21751 78.3345 8.47868C78.5936 8.73985 78.77 9.07265 78.8415 9.43499C78.9129 9.79725 78.8763 10.1728 78.736 10.514C78.5958 10.8554 78.3583 11.1471 78.0537 11.3523C77.749 11.5575 77.3909 11.667 77.0245 11.667C76.5348 11.6616 76.0668 11.4631 75.7205 11.1139C75.3742 10.7649 75.1773 10.293 75.1719 9.7993ZM75.4737 12.5799H78.596V22.9676H75.4737V12.5799Z" fill="#282938"/>
<path d="M91.9602 17.7738C91.9955 18.4647 91.8946 19.1557 91.6633 19.807C91.4328 20.4584 91.076 21.0574 90.6143 21.5693C90.1534 22.0813 89.5956 22.4963 88.9748 22.7903C88.3539 23.0843 87.6814 23.2515 86.9957 23.2825C86.4142 23.3215 85.831 23.2276 85.2905 23.0078C84.7501 22.7879 84.2653 22.4479 83.8733 22.0129V27.1438H80.751V12.58H83.8733V13.5558C84.2662 13.1221 84.7509 12.7836 85.2914 12.5655C85.8319 12.3475 86.415 12.2556 86.9957 12.2966C87.6781 12.3276 88.3482 12.4939 88.9674 12.786C89.5866 13.078 90.1419 13.4901 90.6028 13.9987C91.0637 14.5073 91.4213 15.1025 91.6543 15.7502C91.8872 16.398 91.9905 17.0856 91.9602 17.7738ZM88.8378 17.7738C88.8255 17.2865 88.6705 16.8136 88.3933 16.4146C88.1152 16.0155 87.7273 15.708 87.277 15.5305C86.8259 15.353 86.3338 15.3135 85.8614 15.4169C85.389 15.5203 84.9567 15.762 84.6205 16.1117C84.2834 16.4615 84.0562 16.9036 83.9676 17.3828C83.879 17.8621 83.9323 18.357 84.1218 18.8057C84.3113 19.2543 84.627 19.6366 85.0314 19.9048C85.4349 20.173 85.9081 20.3149 86.392 20.313C86.7234 20.3272 87.0539 20.2706 87.3615 20.1471C87.6699 20.0235 87.9479 19.8356 88.1792 19.5958C88.4105 19.3561 88.5885 19.0698 88.7016 18.7558C88.8148 18.4419 88.8616 18.1072 88.8378 17.7738Z" fill="#282938"/>
<path d="M101.462 19.8513C101.462 22.2436 99.3804 23.2614 97.1741 23.2614C96.2744 23.343 95.3705 23.1507 94.5799 22.7093C93.7901 22.2678 93.1487 21.5976 92.7402 20.7851L95.4255 19.2532C95.5321 19.6276 95.7626 19.9538 96.0792 20.1772C96.3957 20.4008 96.778 20.5079 97.1634 20.4808C97.9024 20.4808 98.2772 20.25 98.2772 19.8302C98.2772 18.6866 93.2086 19.2952 93.2086 15.6962C93.2086 13.4298 95.1032 12.2965 97.2471 12.2965C98.0623 12.2598 98.8719 12.4461 99.5903 12.836C100.308 13.2258 100.908 13.8044 101.327 14.5105L98.6414 15.9375C98.5233 15.6668 98.3289 15.4366 98.0837 15.2745C97.8376 15.1125 97.5506 15.0257 97.2578 15.0247C96.7164 15.0247 96.3933 15.2345 96.3933 15.6017C96.3933 16.7979 101.462 16.0109 101.462 19.8513Z" fill="#282938"/>
<path d="M112.776 12.5801V22.9679H109.653V21.992C109.298 22.4239 108.848 22.7658 108.338 22.99C107.828 23.2142 107.273 23.3144 106.718 23.2826C104.636 23.2826 102.856 21.7822 102.856 18.9807V12.5801H105.979V18.5084C105.954 18.7563 105.984 19.0066 106.064 19.242C106.145 19.4774 106.276 19.6923 106.446 19.8718C106.618 20.0514 106.826 20.1914 107.056 20.2821C107.286 20.3728 107.533 20.412 107.779 20.3971C108.904 20.3971 109.694 19.7256 109.694 18.2986V12.5801H112.776Z" fill="#282938"/>
<path d="M130.468 16.5883V22.9679H127.345V16.8612C127.345 15.8119 126.856 15.1614 125.867 15.1614C124.878 15.1614 124.254 15.8853 124.254 17.113V22.9679H121.132V16.8612C121.132 15.8119 120.643 15.1614 119.654 15.1614C118.665 15.1614 118.04 15.8853 118.04 17.113V22.9679H114.918V12.5801H118.04V13.535C118.364 13.1131 118.786 12.7791 119.27 12.5629C119.753 12.3468 120.282 12.2553 120.809 12.2968C121.337 12.2691 121.863 12.3802 122.336 12.6193C122.808 12.8585 123.212 13.2174 123.504 13.6609C123.847 13.1976 124.302 12.8295 124.824 12.5909C125.346 12.3524 125.92 12.2512 126.491 12.2968C128.927 12.2968 130.468 13.9967 130.468 16.5883Z" fill="#282938"/>
<path d="M14.3693 5.07755V0.618164H0.422852V31.2568H14.3693V26.7974C11.5124 26.7974 8.77244 25.6532 6.75229 23.6166C4.73214 21.58 3.59723 18.8177 3.59723 15.9375C3.59723 13.0572 4.73214 10.295 6.75229 8.25836C8.77244 6.22171 11.5124 5.07755 14.3693 5.07755Z" fill="#282938"/>
<path d="M14.3701 5.07812V26.7979C17.227 26.7979 19.967 25.6538 21.9871 23.6171C24.0073 21.5805 25.1422 18.8183 25.1422 15.938C25.1422 13.0578 24.0073 10.2955 21.9871 8.25894C19.967 6.22229 17.227 5.07812 14.3701 5.07812Z" fill="#282938"/>
<path d="M133.091 12.5172C134.355 12.5172 135.381 11.4836 135.381 10.2088C135.381 8.9339 134.355 7.90039 133.091 7.90039C131.826 7.90039 130.801 8.9339 130.801 10.2088C130.801 11.4836 131.826 12.5172 133.091 12.5172Z" fill="#282938"/>
</svg>
