<svg width="137" height="32" viewBox="0 0 137 32" fill="none" xmlns="http://www.w3.org/2000/svg">
<path d="M39.1045 9.89956H42.5333V23.7669H39.1045V9.89956ZM43.9006 18.5507C43.9006 15.1158 46.0369 13.057 49.2413 13.057C52.4459 13.057 54.5822 15.1158 54.5822 18.5507C54.5822 21.9855 52.5207 24.0656 49.2413 24.0656C45.9621 24.0656 43.9006 22.0602 43.9006 18.5507ZM51.1855 18.5507C51.1855 16.6626 50.4484 15.5532 49.2734 15.5532C48.0984 15.5532 47.3721 16.6199 47.3721 18.5507C47.3721 20.4814 48.0984 21.5375 49.2734 21.5375C50.4484 21.5375 51.2068 20.4815 51.2068 18.5613L51.1855 18.5507ZM55.9495 24.4816H59.2608C59.4115 24.8377 59.6748 25.1346 60.0104 25.3272C60.346 25.5199 60.7355 25.5975 61.1194 25.5483C62.4333 25.5483 63.1168 24.8443 63.1168 23.7989V21.8788H63.1275C62.8446 22.4767 62.387 22.975 61.8151 23.3082C61.2431 23.6415 60.5835 23.7939 59.9231 23.7455C57.4129 23.7455 55.7465 21.8362 55.7465 18.5507C55.7465 15.2651 57.3381 13.217 60.0192 13.217C60.6965 13.1808 61.3684 13.3553 61.9423 13.7164C62.5163 14.0775 62.9639 14.6074 63.2237 15.2331H63.1275V13.3024H66.5244V23.6922C66.5244 26.199 64.3025 27.7671 61.0339 27.7671C58.0645 27.7564 56.1631 26.4017 55.9708 24.4923L55.9495 24.4816ZM63.1275 18.5507C63.1275 16.8759 62.3585 15.8198 61.1407 15.8198C59.9231 15.8198 59.1753 16.8866 59.1753 18.5507C59.1753 20.2148 59.9124 21.1961 61.1407 21.1961C62.3692 21.1961 63.1275 20.2894 63.1275 18.5507ZM67.8809 18.5507C67.8809 15.1158 70.0172 13.057 73.2217 13.057C76.4263 13.057 78.5626 15.1158 78.5626 18.5507C78.5626 21.9855 76.4903 24.0656 73.2217 24.0656C69.9532 24.0656 67.9022 22.0602 67.9022 18.5507H67.8809ZM75.1658 18.5507C75.1658 16.6626 74.4181 15.5532 73.2538 15.5532C72.0895 15.5532 71.3524 16.6199 71.3524 18.5507C71.3524 20.4814 72.0788 21.5375 73.2538 21.5375C74.4288 21.5375 75.1872 20.4815 75.1872 18.5613L75.1658 18.5507ZM79.9512 10.7743C79.9363 10.4255 80.0262 10.0802 80.2094 9.78285C80.3926 9.4855 80.6607 9.24971 80.9792 9.10579C81.2977 8.96188 81.652 8.9164 81.9966 8.97518C82.3412 9.03405 82.6603 9.19447 82.9128 9.4359C83.1654 9.67733 83.3398 9.98866 83.4136 10.3299C83.4875 10.6711 83.4575 11.0266 83.3273 11.3507C83.1973 11.6747 82.973 11.9524 82.6835 12.1482C82.3941 12.3439 82.0526 12.4487 81.703 12.449C81.4796 12.4547 81.2573 12.416 81.0489 12.3352C80.8406 12.2543 80.6505 12.133 80.4895 11.9782C80.3285 11.8234 80.1999 11.6382 80.1111 11.4334C80.0224 11.2285 79.9753 11.0081 79.9726 10.785L79.9512 10.7743ZM79.9512 13.2917H83.4228V23.8095H80.0046L79.9512 13.2917ZM95.9095 18.5507C95.9095 21.9748 94.3716 23.9589 91.7546 23.9589C91.0845 24.0002 90.4179 23.8351 89.8446 23.486C89.2714 23.137 88.8202 22.6207 88.55 22.0068H88.486V27.1911H85.0567V13.3237H88.4641V15.2011H88.529C88.7891 14.5753 89.2369 14.0448 89.8101 13.6821C90.3833 13.3194 91.0551 13.1422 91.7327 13.1744C94.4246 13.153 95.9734 15.1265 95.9734 18.5613L95.9095 18.5507ZM92.417 18.5507C92.417 16.8866 91.6367 15.8092 90.4296 15.8092C89.2226 15.8092 88.4641 16.8759 88.454 18.5507C88.4431 20.2254 89.2226 21.2815 90.4296 21.2815C91.6367 21.2815 92.481 20.2894 92.481 18.5613L92.417 18.5507ZM101.763 13.0463C104.637 13.0463 106.42 14.4011 106.442 16.5772H103.312C103.312 15.8198 102.682 15.3505 101.742 15.3505C100.802 15.3505 100.353 15.7132 100.353 16.2572C100.353 16.8012 100.749 16.9719 101.539 17.1319L103.739 17.5799C105.876 18.028 106.73 18.8814 106.73 20.4708C106.73 22.6042 104.754 24.0549 101.817 24.0549C98.8792 24.0549 96.9667 22.6468 96.8287 20.5028H100.15C100.246 21.2815 100.866 21.7402 101.87 21.7402C102.874 21.7402 103.344 21.4202 103.344 20.8548C103.344 20.2894 103.024 20.1934 102.201 20.0228L100.214 19.6067C98.1528 19.1694 97.0736 18.092 97.0736 16.4812C97.1384 14.3904 98.9322 13.057 101.827 13.057L101.763 13.0463ZM118.213 23.7989H114.891V21.8255H114.827C114.641 22.4837 114.236 23.0591 113.679 23.4565C113.122 23.8541 112.445 24.05 111.761 24.0122C111.245 24.0291 110.731 23.9366 110.253 23.7411C109.775 23.5455 109.344 23.2511 108.988 22.8774C108.632 22.5037 108.359 22.0591 108.187 21.5726C108.015 21.0861 107.948 20.5689 107.99 20.0548V13.3024H111.42V19.3187C111.42 20.5561 112.071 21.2282 113.139 21.2282C113.39 21.2262 113.637 21.1707 113.864 21.0652C114.091 20.9597 114.293 20.8068 114.457 20.6167C114.619 20.4266 114.74 20.2038 114.809 19.9633C114.878 19.7228 114.895 19.4703 114.859 19.2227V13.3024H118.277L118.213 23.7989ZM119.868 13.2917H123.202V15.3185H123.276C123.46 14.6692 123.855 14.0992 124.398 13.6978C124.941 13.2963 125.602 13.086 126.278 13.0997C126.956 13.0409 127.632 13.2367 128.173 13.649C128.714 14.0613 129.082 14.6604 129.204 15.3291H129.354C129.567 14.6569 129.997 14.0738 130.577 13.6706C131.156 13.2674 131.853 13.0667 132.559 13.0997C133.028 13.0819 133.495 13.1631 133.93 13.3382C134.365 13.5132 134.759 13.778 135.084 14.1154C135.41 14.4527 135.661 14.8549 135.82 15.2958C135.98 15.7365 136.044 16.2059 136.009 16.6732V23.8095H132.559V17.5479C132.559 16.4812 132.056 15.8838 131.085 15.8838C130.868 15.8803 130.655 15.9234 130.458 16.0101C130.261 16.0968 130.084 16.2251 129.941 16.3862C129.798 16.5473 129.692 16.7374 129.629 16.9434C129.566 17.1495 129.549 17.3666 129.578 17.5799V23.8095H126.309V17.5159C126.309 16.4492 125.786 15.8838 124.847 15.8838C124.629 15.8821 124.413 15.9269 124.214 16.0154C124.015 16.1037 123.836 16.2335 123.692 16.3962C123.548 16.5589 123.439 16.7506 123.375 16.9584C123.31 17.1663 123.292 17.3855 123.319 17.6013V23.8095H119.89L119.868 13.2917Z" fill="#282938"/>
<path d="M32.3226 10.8063C32.3227 8.68319 31.6807 6.60957 30.4807 4.85701C29.2807 3.10445 27.5787 1.75469 25.5975 0.984508C23.6163 0.214331 21.4484 0.059655 19.3778 0.540737C17.3071 1.02182 15.4302 2.11623 13.9928 3.68062H0.662109V31.778H28.8083V18.6467C29.913 17.6599 30.797 16.4517 31.4026 15.1007C32.0081 13.7497 32.3216 12.2865 32.3226 10.8063ZM26.907 10.8063C26.9091 11.8236 26.609 12.8188 26.0445 13.6658C25.4801 14.5127 24.6767 15.1733 23.7361 15.5641C22.7956 15.9549 21.7599 16.0583 20.7605 15.861C19.7611 15.6639 18.8428 15.1751 18.1216 14.4564C17.4005 13.7378 16.9091 12.8216 16.7096 11.824C16.5101 10.8263 16.6114 9.79199 17.0007 8.85186C17.3901 7.91172 18.05 7.10808 18.897 6.54264C19.7438 5.97721 20.7396 5.67539 21.7584 5.67538C23.1221 5.67538 24.43 6.21562 25.3952 7.17754C26.3605 8.13947 26.9042 9.44453 26.907 10.8063ZM23.3927 26.3698H6.07772V9.08891H11.3545C11.2526 9.65582 11.1989 10.2303 11.1942 10.8063C11.1971 13.6034 12.311 16.2852 14.2915 18.2631C16.2721 20.2409 18.9575 21.3533 21.7584 21.3562C22.306 21.3532 22.8525 21.3069 23.3927 21.2175V26.3698Z" fill="#282938"/>
</svg>
