<svg width="136" height="32" viewBox="0 0 136 32" fill="none" xmlns="http://www.w3.org/2000/svg">
<g clip-path="url(#clip0_904_1066)">
<path d="M39.3184 9.3468H42.7009V23.0049H39.3184V9.3468ZM44.0426 17.8479C44.0426 14.47 46.1172 12.4545 49.3194 12.4545C52.5215 12.4545 54.5961 14.47 54.5961 17.8479C54.5961 21.2259 52.5666 23.2527 49.3194 23.2527C46.0721 23.2527 44.0426 21.2822 44.0426 17.8479ZM51.2023 17.8479C51.2023 15.9901 50.4694 14.8979 49.3194 14.8979C48.1693 14.8979 47.4477 16.0239 47.4477 17.8479C47.4477 19.672 48.158 20.7755 49.3194 20.7755C50.4807 20.7755 51.2023 19.7396 51.2023 17.8592V17.8479ZM55.8702 23.6693H59.1174C59.272 24.0121 59.5333 24.296 59.8624 24.4786C60.1915 24.6612 60.5709 24.7328 60.944 24.6826C62.2294 24.6826 62.9059 23.9846 62.9059 22.9712V21.0795H62.8382C62.5687 21.6593 62.1314 22.1451 61.5827 22.4743C61.0341 22.8034 60.3992 22.9608 59.7601 22.9262C57.2909 22.9262 55.6559 21.0457 55.6559 17.8142C55.6559 14.5826 57.2119 12.5446 59.8052 12.5446C60.4643 12.5188 61.1156 12.6948 61.6718 13.0489C62.228 13.4032 62.6625 13.9186 62.9171 14.5263V12.6459H66.2997V22.8923C66.2997 25.3583 64.1235 26.8896 60.9102 26.8896C57.9223 26.8896 56.0619 25.5496 55.8702 23.6806V23.6693ZM62.9171 17.8367C62.9171 16.1928 62.1617 15.1568 60.9665 15.1568C59.7714 15.1568 59.0385 16.1815 59.0385 17.8367C59.0385 19.4919 59.7601 20.4264 60.9665 20.4264C62.173 20.4264 62.9171 19.5144 62.9171 17.8479V17.8367ZM67.5738 17.8367C67.5738 14.4587 69.6484 12.4432 72.8505 12.4432C76.0526 12.4432 78.1385 14.4587 78.1385 17.8367C78.1385 21.2146 76.1091 23.2414 72.8505 23.2414C69.592 23.2414 67.5738 21.2822 67.5738 17.8479V17.8367ZM74.7334 17.8367C74.7334 15.9788 74.0006 14.8866 72.8505 14.8866C71.7005 14.8866 71.0353 16.0239 71.0353 17.8592C71.0353 19.6945 71.7455 20.7868 72.8956 20.7868C74.0456 20.7868 74.7334 19.7396 74.7334 17.8592V17.8367ZM79.4239 10.1912C79.4151 9.85026 79.5077 9.51426 79.6903 9.22591C79.8729 8.93755 80.1372 8.70978 80.4495 8.57156C80.7618 8.43333 81.1082 8.39083 81.4448 8.44944C81.7813 8.50806 82.0929 8.66514 82.3399 8.90075C82.587 9.13639 82.7584 9.44004 82.8325 9.77311C82.9065 10.1061 82.8799 10.4536 82.756 10.7716C82.632 11.0895 82.4164 11.3635 82.1363 11.5589C81.8562 11.7543 81.5244 11.8622 81.1828 11.869C80.9564 11.8845 80.7292 11.8531 80.5155 11.7768C80.3018 11.7005 80.1062 11.5808 79.9411 11.4254C79.7759 11.2699 79.6447 11.0821 79.5557 10.8736C79.4667 10.665 79.4218 10.4404 79.4239 10.2138V10.1912ZM79.4239 12.6684H82.8065V23.0049H79.4239V12.6684ZM95.0855 17.8367C95.0855 21.2146 93.5856 23.14 91.0151 23.14C90.3559 23.1824 89.6992 23.0214 89.135 22.6791C88.5699 22.3368 88.1243 21.8295 87.8577 21.2259H87.79V26.3153H84.4075V12.6459H87.79V14.4925H87.8577C88.1118 13.879 88.5491 13.3585 89.1102 13.0019C89.6708 12.6454 90.3283 12.4699 90.992 12.4995C93.5856 12.5446 95.1299 14.4813 95.1299 17.8592L95.0855 17.8367ZM91.7029 17.8367C91.7029 16.1928 90.9467 15.1456 89.7632 15.1456C88.5793 15.1456 87.8238 16.204 87.8126 17.8367C87.8013 19.4694 88.5793 20.5166 89.7632 20.5166C90.9467 20.5166 91.7029 19.4919 91.7029 17.8592V17.8367ZM100.892 12.432C103.699 12.432 105.402 13.7607 105.48 15.8888H102.402C102.402 15.1568 101.794 14.6952 100.858 14.6952C99.9217 14.6952 99.505 15.0555 99.505 15.5848C99.505 16.1139 99.8773 16.2828 100.632 16.4405L102.797 16.8796C104.861 17.3187 105.74 18.152 105.74 19.7171C105.74 21.8565 103.789 23.2302 100.914 23.2302C98.0389 23.2302 96.1561 21.8565 96.0095 19.7509H99.2677C99.3699 20.5166 99.9785 20.9669 100.971 20.9669C101.963 20.9669 102.414 20.6404 102.414 20.1C102.414 19.5594 102.099 19.4469 101.286 19.2779L99.3361 18.8614C97.3174 18.4448 96.2574 17.3751 96.2574 15.7987C96.2805 13.7719 98.0958 12.4545 100.892 12.4545V12.432ZM117.027 22.9824H113.767V21.057H113.7C113.521 21.7034 113.126 22.2693 112.58 22.6605C112.035 23.0517 111.372 23.2448 110.701 23.2076C110.187 23.2368 109.673 23.1555 109.193 22.9692C108.714 22.7828 108.279 22.4959 107.92 22.1276C107.561 21.7593 107.286 21.3184 107.112 20.8345C106.937 20.3507 106.87 19.8352 106.913 19.323V12.6459H110.295V18.5461C110.295 19.7734 110.927 20.4264 111.975 20.4264C112.221 20.427 112.464 20.375 112.688 20.2739C112.913 20.1729 113.113 20.0253 113.274 19.8408C113.437 19.6563 113.558 19.4393 113.629 19.2044C113.701 18.9695 113.721 18.7219 113.689 18.4785V12.6459H117.072L117.027 22.9824ZM118.661 12.6459H121.931V14.6389H121.999C122.178 14.001 122.565 13.4406 123.097 13.0453C123.629 12.65 124.278 12.4423 124.942 12.4545C125.617 12.4006 126.287 12.6023 126.82 13.0195C127.352 13.4368 127.708 14.0391 127.817 14.7064H127.884C128.089 14.032 128.512 13.4446 129.088 13.0368C129.664 12.6291 130.359 12.4242 131.064 12.4545C131.524 12.4391 131.982 12.5205 132.409 12.6934C132.835 12.8663 133.22 13.1269 133.539 13.4582C133.858 13.7896 134.104 14.1842 134.26 14.6165C134.417 15.0488 134.48 15.5091 134.446 15.9676V23.0049H131.064V16.8683C131.064 15.7424 130.556 15.2244 129.61 15.2244C129.398 15.2226 129.189 15.2661 128.996 15.3519C128.803 15.4377 128.631 15.5638 128.491 15.7217C128.351 15.8797 128.247 16.0658 128.185 16.2675C128.122 16.4691 128.105 16.6817 128.132 16.8909V23.0049H124.919V16.8233C124.919 15.7874 124.412 15.2244 123.487 15.2244C123.274 15.2245 123.062 15.2698 122.868 15.3573C122.673 15.4448 122.499 15.5727 122.357 15.7322C122.216 15.8919 122.109 16.0796 122.045 16.2832C121.982 16.4868 121.962 16.7016 121.987 16.9134V23.0049H118.605L118.661 12.6459Z" fill="#282938"/>
<path d="M29.8585 9.96624C29.2847 8.65605 28.5253 7.435 27.6035 6.34062C26.2408 4.67455 24.5404 3.31555 22.6139 2.35308C20.6874 1.39061 18.5787 0.846471 16.4265 0.756497C14.2743 0.666522 12.1274 1.03274 10.1271 1.83105C8.12684 2.62937 6.31855 3.84167 4.82124 5.38819C3.32392 6.93469 2.17156 8.78034 1.43997 10.8037C0.708381 12.827 0.414164 14.9821 0.576685 17.1271C0.739206 19.2721 1.35478 21.3585 2.38289 23.2488C3.411 25.1392 4.82833 26.7907 6.5416 28.0946C7.64093 28.9479 8.85565 29.6417 10.1497 30.1551C11.9638 30.8976 13.9055 31.28 15.8661 31.2811C19.9132 31.2722 23.7916 29.6612 26.6513 26.8012C29.5109 23.9413 31.1184 20.0657 31.1213 16.024C31.1243 13.9393 30.6943 11.8766 29.8585 9.96624ZM15.8548 3.8522C17.6155 3.85201 19.3549 4.23631 20.9512 4.97818C20.562 5.14614 20.1527 5.26345 19.7335 5.32724C18.3541 5.52664 17.0762 6.16618 16.0907 7.15039C15.1051 8.13461 14.4648 9.41069 14.265 10.7883C14.1774 11.5608 13.8255 12.2795 13.2689 12.8231C12.7122 13.3667 11.9849 13.7019 11.2095 13.7721C9.83014 13.9715 8.55225 14.611 7.5667 15.5952C6.58116 16.5795 5.94075 17.8556 5.74107 19.2331C5.67347 19.9677 5.35963 20.658 4.85034 21.1923C3.97162 19.3382 3.57687 17.2921 3.70284 15.2446C3.82881 13.1971 4.47138 11.2147 5.57079 9.4818C6.67018 7.749 8.19067 6.32206 9.99069 5.33382C11.7908 4.34558 13.812 3.82814 15.8661 3.82968L15.8548 3.8522ZM6.53033 23.906C6.66563 23.7821 6.80093 23.6694 6.93624 23.5343C7.93933 22.5631 8.58321 21.2811 8.7628 19.8974C8.83562 19.1197 9.18338 18.3932 9.74377 17.8481C10.2829 17.2876 11.0088 16.9432 11.7845 16.8798C13.164 16.6804 14.4417 16.0408 15.4273 15.0566C16.4128 14.0725 17.0533 12.7963 17.2529 11.4188C17.3017 10.6053 17.6513 9.83886 18.2339 9.2682C18.7864 8.71853 19.5192 8.38664 20.2973 8.3336C21.5645 8.15949 22.7464 7.59689 23.6798 6.72345C24.7426 7.60405 25.6431 8.66341 26.3407 9.85371C26.2979 9.91149 26.2487 9.96438 26.1941 10.0113C25.6559 10.5768 24.9311 10.9287 24.1534 11.0022C22.7725 11.1981 21.4928 11.8366 20.5065 12.8214C19.5203 13.8062 18.8811 15.0843 18.6849 16.4632C18.6054 17.2383 18.2601 17.9622 17.7073 18.5122C17.1546 19.0622 16.4284 19.4044 15.6519 19.4808C14.2685 19.6787 12.9859 20.317 11.9946 21.3008C11.0033 22.2846 10.3563 23.5615 10.1497 24.9418C10.089 25.4921 9.89971 26.0206 9.59717 26.4845C8.44033 25.7985 7.40425 24.9274 6.53033 23.906ZM15.8548 28.2522C14.7107 28.2534 13.5721 28.0942 12.4723 27.7793C12.8485 27.079 13.0931 26.3157 13.1939 25.5273C13.273 24.7539 13.6167 24.0314 14.1672 23.4816C14.7176 22.9319 15.4411 22.5886 16.2157 22.5097C17.5971 22.3126 18.8775 21.674 19.8653 20.6896C20.853 19.7052 21.4951 18.4278 21.6954 17.0487C21.7743 16.2753 22.1181 15.5527 22.6686 15.003C23.2191 14.4533 23.9426 14.11 24.7171 14.031C25.7567 13.896 26.7475 13.5095 27.6035 12.9051C28.0788 14.7043 28.1351 16.5884 27.7681 18.4126C27.4011 20.237 26.6205 21.9531 25.4862 23.4294C24.3519 24.9056 22.8941 26.1029 21.2245 26.9291C19.555 27.7553 17.7182 28.1887 15.8548 28.1959V28.2522Z" fill="#282938"/>
</g>
<defs>
<clipPath id="clip0_904_1066">
<rect width="135.055" height="32" fill="white"/>
</clipPath>
</defs>
</svg>
