<svg width="154" height="32" viewBox="0 0 154 32" fill="none" xmlns="http://www.w3.org/2000/svg">
<g clip-path="url(#clip0_904_1069)">
<path d="M49.6113 25.4924C48.8367 25.5342 48.0705 25.3151 47.4363 24.8707C47.1713 24.6754 46.9581 24.4189 46.8152 24.1233C46.6723 23.8276 46.6038 23.5019 46.6159 23.1741V11.1682C46.6095 11.1173 46.615 11.0657 46.6317 11.0173C46.6484 10.9689 46.676 10.9249 46.7125 10.8887C46.7489 10.8525 46.7932 10.825 46.8419 10.8083C46.8906 10.7917 46.9425 10.7863 46.9935 10.7926H49.1815C49.429 10.7926 49.5462 10.9221 49.5462 11.1682V22.2416C49.5462 22.7338 49.7676 22.9798 50.2234 22.9798C50.4166 22.9878 50.6099 22.9659 50.7964 22.9151C51.0569 22.9151 51.2002 22.9928 51.2132 23.2259L51.4085 24.8448C51.4179 24.892 51.4171 24.9407 51.4059 24.9875C51.3948 25.0344 51.3738 25.0782 51.3441 25.1163C51.3145 25.1543 51.2771 25.1857 51.2343 25.2081C51.1914 25.2305 51.1443 25.2436 51.096 25.2464C50.6167 25.4038 50.116 25.4868 49.6113 25.4924Z" fill="#282938"/>
<path d="M61.9193 24.1072C60.8198 25.0105 59.4383 25.5046 58.0122 25.5046C56.586 25.5046 55.2045 25.0105 54.1051 24.1072C53.1388 23.1371 52.5967 21.8268 52.5967 20.4613C52.5967 19.0959 53.1388 17.7856 54.1051 16.8155C55.2067 15.9169 56.5874 15.4258 58.0122 15.4258C59.437 15.4258 60.8178 15.9169 61.9193 16.8155C62.8633 17.7946 63.3903 19.0985 63.3903 20.4549C63.3903 21.8113 62.8633 23.1152 61.9193 24.0943V24.1072ZM56.1629 22.3975C56.673 22.8572 57.3368 23.1118 58.0252 23.1118C58.7136 23.1118 59.3775 22.8572 59.8876 22.3975C60.3493 21.8697 60.6037 21.1934 60.6037 20.4938C60.6037 19.794 60.3493 19.1179 59.8876 18.5899C59.3775 18.1303 58.7136 17.8757 58.0252 17.8757C57.3368 17.8757 56.673 18.1303 56.1629 18.5899C55.701 19.1179 55.4468 19.794 55.4468 20.4938C55.4468 21.1934 55.701 21.8697 56.1629 22.3975Z" fill="#282938"/>
<path d="M75.4378 15.7522C75.6852 15.7522 75.8024 15.8818 75.8024 16.1279V25.4139C75.8251 26.0407 75.7072 26.6646 75.4572 27.2404C75.2072 27.8162 74.8312 28.3292 74.3568 28.7425C73.3038 29.6355 71.9495 30.0982 70.5669 30.0376C69.3181 30.0813 68.086 29.7422 67.0375 29.0663C66.5897 28.7738 66.2072 28.393 65.9138 27.9474C65.6202 27.5019 65.422 27.001 65.3314 26.476C65.3314 26.2169 65.3314 26.1004 65.6831 26.1004H67.8711C67.9639 26.1036 68.0539 26.1333 68.1302 26.1862C68.2064 26.239 68.2657 26.3127 68.3008 26.3983C68.4427 26.7917 68.7256 27.1191 69.0952 27.3178C69.5457 27.549 70.0471 27.6647 70.5539 27.6546C70.8597 27.6713 71.1658 27.6271 71.4542 27.5248C71.7427 27.4225 72.0078 27.2642 72.234 27.0588C72.4406 26.844 72.6014 26.5899 72.7065 26.3116C72.8118 26.0334 72.8592 25.7368 72.846 25.4399V24.624C72.0627 25.197 71.1093 25.4932 70.1372 25.4658C69.4568 25.4904 68.7785 25.378 68.1428 25.1354C67.5072 24.8929 66.9276 24.5251 66.4385 24.054C65.4995 23.0881 64.9746 21.7971 64.9746 20.4536C64.9746 19.11 65.4995 17.8191 66.4385 16.8531C66.9299 16.3863 67.5103 16.022 68.1455 15.7818C68.7808 15.5416 69.4579 15.4303 70.1372 15.4544C71.1373 15.4281 72.1164 15.7435 72.9111 16.348V16.1408C72.9052 16.0912 72.9104 16.0408 72.9264 15.9935C72.9424 15.9461 72.9689 15.9028 73.0038 15.8669C73.0387 15.8309 73.0812 15.8031 73.1282 15.7856C73.1754 15.7679 73.2257 15.761 73.2759 15.7652L75.4378 15.7522ZM70.3846 23.1604C70.7201 23.1707 71.0538 23.1077 71.3622 22.9756C71.6705 22.8436 71.9459 22.6458 72.1688 22.3963C72.6018 21.8403 72.8367 21.1569 72.8367 20.4536C72.8367 19.7504 72.6018 19.067 72.1688 18.5109C71.9466 18.2647 71.6729 18.0699 71.3669 17.9402C71.061 17.8104 70.7301 17.7488 70.3976 17.7597C70.0582 17.7491 69.7205 17.812 69.408 17.9439C69.0954 18.0758 68.8154 18.2737 68.5874 18.5238C68.1077 19.0557 67.8554 19.7526 67.8841 20.4665C67.8605 21.1734 68.1071 21.863 68.5743 22.3963C68.8029 22.6457 69.0831 22.8432 69.3955 22.9751C69.7079 23.1069 70.0453 23.1702 70.3846 23.1604Z" fill="#282938"/>
<path d="M87.0414 24.1064C85.9399 25.005 84.5592 25.4961 83.1343 25.4961C81.7096 25.4961 80.3288 25.005 79.2273 24.1064C78.2824 23.1251 77.7549 21.8191 77.7549 20.4606C77.7549 19.102 78.2824 17.7959 79.2273 16.8147C80.3298 15.9184 81.7102 15.4287 83.1343 15.4287C84.5585 15.4287 85.9388 15.9184 87.0414 16.8147C87.9855 17.7937 88.5125 19.0977 88.5125 20.4541C88.5125 21.8104 87.9855 23.1144 87.0414 24.0934V24.1064ZM81.272 22.3968C81.5217 22.6329 81.816 22.8175 82.1379 22.9398C82.4598 23.0621 82.8029 23.1197 83.1473 23.1091C83.4897 23.1179 83.8303 23.0596 84.1498 22.9374C84.4694 22.815 84.7616 22.6314 85.0098 22.3968C85.464 21.8653 85.7134 21.1905 85.7134 20.4929C85.7134 19.7954 85.464 19.1206 85.0098 18.5891C84.7616 18.3544 84.4694 18.1708 84.1498 18.0485C83.8303 17.9263 83.4897 17.8679 83.1473 17.8767C82.8029 17.8662 82.4598 17.9238 82.1379 18.046C81.816 18.1683 81.5217 18.3529 81.272 18.5891C80.8178 19.1206 80.5684 19.7954 80.5684 20.4929C80.5684 21.1905 80.8178 21.8653 81.272 22.3968Z" fill="#282938"/>
<path d="M93.2152 13.5513C92.871 13.851 92.4289 14.0161 91.9714 14.0161C91.5139 14.0161 91.072 13.851 90.7276 13.5513C90.5715 13.4048 90.4472 13.2281 90.3623 13.0322C90.2773 12.8362 90.2334 12.625 90.2334 12.4116C90.2334 12.1981 90.2773 11.9869 90.3623 11.791C90.4472 11.595 90.5715 11.4184 90.7276 11.2719C91.0755 10.9796 91.5161 10.8193 91.9714 10.8193C92.4268 10.8193 92.8673 10.9796 93.2152 11.2719C93.3713 11.4184 93.4956 11.595 93.5806 11.791C93.6656 11.9869 93.7094 12.1981 93.7094 12.4116C93.7094 12.625 93.6656 12.8362 93.5806 13.0322C93.4956 13.2281 93.3713 13.4048 93.2152 13.5513ZM93.4887 25.4925C92.7145 25.5303 91.9496 25.3116 91.3137 24.8707C91.0528 24.6725 90.8433 24.4151 90.7029 24.12C90.5623 23.8249 90.495 23.5005 90.5062 23.1741V16.1287C90.4999 16.0778 90.5054 16.0261 90.5221 15.9777C90.5388 15.9293 90.5665 15.8853 90.6029 15.8491C90.6393 15.8129 90.6836 15.7854 90.7323 15.7687C90.781 15.7521 90.8328 15.7467 90.884 15.753H93.072C93.3194 15.753 93.4366 15.8826 93.4366 16.1287V22.2417C93.4366 22.7338 93.658 22.9799 94.1008 22.9799C94.2983 22.987 94.4958 22.9651 94.6869 22.9151C94.9473 22.9151 95.0906 22.9929 95.1036 23.2259L95.299 24.8449C95.3083 24.8921 95.3074 24.9407 95.2964 24.9876C95.2852 25.0344 95.2642 25.0783 95.2346 25.1163C95.205 25.1544 95.1674 25.1857 95.1247 25.2081C95.0819 25.2306 95.0347 25.2436 94.9864 25.2464C94.5029 25.4047 93.9977 25.4877 93.4887 25.4925Z" fill="#282938"/>
<path d="M103.349 15.4419C104.033 15.4151 104.714 15.5251 105.353 15.7653C105.994 16.0056 106.578 16.3714 107.073 16.8407C107.995 17.8237 108.507 19.1172 108.507 20.4607C108.507 21.804 107.995 23.0977 107.073 24.0806C106.581 24.5541 105.997 24.9233 105.356 25.166C104.717 25.4086 104.034 25.5197 103.349 25.4922C102.373 25.5138 101.418 25.2182 100.627 24.6504V29.3258C100.627 29.5719 100.497 29.6885 100.249 29.6885H98.0611C98.0111 29.6977 97.9597 29.6948 97.9112 29.6799C97.8627 29.6649 97.8185 29.6385 97.7826 29.6028C97.7467 29.567 97.7201 29.5232 97.7051 29.4749C97.69 29.4267 97.687 29.3755 97.6964 29.3258V18.7057C97.7117 18.6019 97.7024 18.4959 97.6692 18.3962C97.6361 18.2965 97.5798 18.2059 97.5052 18.1317C97.4305 18.0575 97.3395 18.0016 97.2392 17.9686C97.139 17.9356 97.0325 17.9264 96.928 17.9415H96.4982C96.2117 17.9415 96.0684 17.838 96.0684 17.6307V16.1025C96.0617 16.0079 96.0877 15.9139 96.1423 15.8362C96.1968 15.7583 96.2764 15.7015 96.368 15.6751C96.8185 15.5122 97.2953 15.4333 97.7746 15.4419C98.2525 15.3999 98.7322 15.5007 99.1521 15.7314C99.5721 15.9622 99.9132 16.3123 100.132 16.7371C100.551 16.3151 101.053 15.9826 101.606 15.76C102.159 15.5372 102.752 15.429 103.349 15.4419ZM101.317 22.3969C101.549 22.6382 101.828 22.8303 102.137 22.9615C102.446 23.0927 102.778 23.1603 103.114 23.1603C103.451 23.1603 103.783 23.0927 104.091 22.9615C104.4 22.8303 104.68 22.6382 104.912 22.3969C105.401 21.8543 105.658 21.1434 105.628 20.4154C105.662 19.6866 105.404 18.9741 104.912 18.4337C104.68 18.1924 104.4 18.0003 104.091 17.8691C103.783 17.7379 103.451 17.6703 103.114 17.6703C102.778 17.6703 102.446 17.7379 102.137 17.8691C101.828 18.0003 101.549 18.1924 101.317 18.4337C100.843 18.9836 100.596 19.6917 100.627 20.4154C100.6 21.1383 100.847 21.845 101.317 22.3969Z" fill="#282938"/>
<path d="M114.652 25.4916C113.483 25.5394 112.324 25.2613 111.305 24.6886C110.896 24.4439 110.548 24.1106 110.286 23.7137C110.025 23.3169 109.857 22.8667 109.794 22.3963C109.794 22.1372 109.886 22.0077 110.172 22.0077H112.087C112.177 22.0112 112.266 22.0397 112.342 22.09C112.418 22.1403 112.478 22.2104 112.516 22.2926C112.789 22.992 113.505 23.3417 114.652 23.3417C115.052 23.3599 115.449 23.2798 115.812 23.1085C115.935 23.0526 116.043 22.964 116.121 22.8522C116.199 22.7404 116.245 22.6097 116.254 22.474C116.254 22.1372 116.046 21.9041 115.629 21.7486C115.135 21.585 114.623 21.4764 114.105 21.4249C113.491 21.3558 112.882 21.2476 112.282 21.1011C111.698 20.9697 111.167 20.6674 110.758 20.2334C110.517 19.9383 110.34 19.5971 110.237 19.2309C110.133 18.8647 110.108 18.4814 110.16 18.1049C110.213 17.7283 110.343 17.3665 110.542 17.0419C110.741 16.7174 111.005 16.4371 111.318 16.2184C112.257 15.6237 113.358 15.3341 114.469 15.3895C115.546 15.3534 116.611 15.6181 117.543 16.1537C117.919 16.3653 118.243 16.6577 118.49 17.0094C118.738 17.3612 118.904 17.7635 118.976 18.187C118.976 18.446 118.859 18.5756 118.624 18.5756H116.697C116.615 18.5803 116.535 18.5607 116.465 18.5191C116.396 18.4775 116.34 18.4159 116.306 18.3425C116.177 18.0357 115.934 17.7899 115.629 17.656C115.283 17.4764 114.898 17.3873 114.508 17.397C114.127 17.3764 113.746 17.4521 113.401 17.6172C113.281 17.6638 113.176 17.7453 113.102 17.8515C113.028 17.9578 112.986 18.0836 112.985 18.2129C112.994 18.3901 113.059 18.5599 113.171 18.6974C113.284 18.8349 113.437 18.9329 113.61 18.9771C114.11 19.1645 114.63 19.2949 115.159 19.3657C115.769 19.4454 116.373 19.5578 116.97 19.7024C117.554 19.8337 118.085 20.1359 118.494 20.5701C118.713 20.8093 118.882 21.0892 118.992 21.3937C119.101 21.6983 119.149 22.0215 119.132 22.3445C119.143 22.7921 119.038 23.2351 118.826 23.63C118.613 24.0251 118.301 24.3585 117.921 24.598C116.948 25.2192 115.807 25.5309 114.652 25.4916Z" fill="#282938"/>
<path d="M132.898 24.8449C132.906 24.8908 132.904 24.9379 132.893 24.9831C132.882 25.0283 132.861 25.0708 132.833 25.1083C132.806 25.1457 132.771 25.1771 132.73 25.2009C132.69 25.2245 132.646 25.24 132.599 25.2463C132.124 25.4007 131.627 25.4836 131.128 25.4924C130.633 25.5434 130.132 25.4665 129.676 25.269C129.22 25.0716 128.823 24.7605 128.522 24.3657C127.603 25.1522 126.413 25.5558 125.202 25.4924C124.639 25.5182 124.077 25.4266 123.552 25.2237C123.028 25.0206 122.551 24.7108 122.154 24.3139C121.76 23.8979 121.453 23.4071 121.254 22.8708C121.055 22.3344 120.967 21.7636 120.995 21.1925V16.1286C120.995 15.8825 121.112 15.7529 121.36 15.7529H123.548C123.795 15.7529 123.912 15.8825 123.912 16.1286V20.804C123.889 21.3865 124.089 21.9562 124.473 22.3971C124.663 22.599 124.897 22.7578 125.155 22.8628C125.414 22.9678 125.691 23.0165 125.97 23.0058C126.256 23.0182 126.54 22.9742 126.809 22.8764C127.077 22.7786 127.323 22.6289 127.533 22.4359C127.731 22.2325 127.886 21.9908 127.987 21.7257C128.087 21.4606 128.132 21.1778 128.119 20.8947V16.1286C128.119 15.8825 128.236 15.7529 128.483 15.7529H130.698C130.945 15.7529 131.062 15.8825 131.062 16.1286V22.2287C131.062 22.7338 131.284 22.9799 131.714 22.9799C131.915 22.9876 132.117 22.9658 132.312 22.915C132.362 22.9013 132.414 22.8989 132.464 22.9079C132.515 22.9169 132.562 22.937 132.603 22.967C132.645 22.9969 132.679 23.0357 132.702 23.0806C132.727 23.1254 132.741 23.1751 132.743 23.226L132.898 24.8449Z" fill="#282938"/>
<path d="M153.593 24.8452C153.604 24.8915 153.605 24.9399 153.596 24.9868C153.587 25.0336 153.567 25.0778 153.538 25.1162C153.509 25.1546 153.473 25.1862 153.431 25.2087C153.389 25.2313 153.341 25.2442 153.294 25.2467C152.81 25.4032 152.304 25.4862 151.796 25.4927C151.022 25.5324 150.256 25.3137 149.621 24.8711C149.346 24.6814 149.123 24.4274 148.97 24.1314C148.819 23.8355 148.742 23.5068 148.749 23.1744V20.1308C148.775 19.5501 148.58 18.9807 148.201 18.5378C148.018 18.3354 147.793 18.1758 147.54 18.0705C147.289 17.9653 147.016 17.917 146.743 17.9291C146.496 17.9198 146.251 17.9664 146.026 18.0651C145.8 18.1638 145.599 18.3122 145.441 18.499C145.096 18.933 144.921 19.4753 144.945 20.0273V24.8063C144.945 25.0524 144.828 25.1819 144.581 25.1819H142.379C142.329 25.1882 142.277 25.1828 142.227 25.1662C142.179 25.1496 142.135 25.122 142.098 25.0859C142.062 25.0496 142.034 25.0056 142.018 24.9571C142 24.9087 141.995 24.8571 142.001 24.8063V20.1308C142.03 19.5565 141.85 18.991 141.494 18.5378C141.335 18.3475 141.136 18.1942 140.911 18.089C140.686 17.9838 140.44 17.9292 140.192 17.9291C139.925 17.9185 139.661 17.9637 139.414 18.0619C139.167 18.1601 138.944 18.3091 138.759 18.499C138.387 18.9192 138.195 19.4679 138.225 20.0273V24.8063C138.231 24.8571 138.226 24.9087 138.21 24.9571C138.192 25.0056 138.165 25.0496 138.128 25.0859C138.092 25.122 138.048 25.1496 137.999 25.1662C137.951 25.1828 137.899 25.1882 137.847 25.1819H135.725C135.477 25.1819 135.36 25.0524 135.36 24.8063V18.7062C135.375 18.6024 135.366 18.4964 135.333 18.3966C135.3 18.297 135.243 18.2064 135.169 18.1322C135.094 18.058 135.003 18.0021 134.902 17.9691C134.802 17.936 134.696 17.9269 134.592 17.9421H134.162C133.875 17.9421 133.731 17.8385 133.731 17.6312V16.103C133.725 16.0084 133.751 15.9144 133.806 15.8366C133.86 15.7589 133.94 15.702 134.032 15.6756C134.482 15.5127 134.958 15.4337 135.438 15.4424C135.898 15.4035 136.359 15.4946 136.77 15.7055C137.18 15.9163 137.522 16.2382 137.757 16.634C138.195 16.2198 138.716 15.9003 139.286 15.6953C139.854 15.4903 140.46 15.4042 141.065 15.4424C141.651 15.414 142.237 15.5234 142.772 15.762C143.309 16.0005 143.781 16.3613 144.151 16.8153C144.582 16.3495 145.111 15.9847 145.702 15.7472C146.292 15.5098 146.927 15.4057 147.563 15.4424C148.132 15.416 148.699 15.5071 149.23 15.71C149.762 15.9128 150.245 16.223 150.649 16.621C151.045 17.0361 151.352 17.5268 151.551 18.0633C151.75 18.5999 151.838 19.1711 151.809 19.7423V22.2419C151.809 22.7341 152.03 22.9802 152.447 22.9802C152.649 22.9896 152.851 22.9677 153.046 22.9154C153.315 22.9154 153.458 23.019 153.475 23.2263L153.593 24.8452Z" fill="#282938"/>
<path d="M0.877719 14.0697C1.83856 10.2293 4.06386 6.81882 7.19927 4.3815C10.3346 1.94419 14.2 0.620117 18.1796 0.620117C22.1593 0.620117 26.0245 1.94419 29.16 4.3815C32.2954 6.81882 34.5207 10.2293 35.4816 14.0697H33.9188C31.2823 14.0311 28.7 14.8147 26.5343 16.3104C26.4093 16.4004 26.2788 16.4825 26.1436 16.5564H25.9613C25.826 16.4825 25.6955 16.4004 25.5705 16.3104C23.3857 14.8493 20.8126 14.069 18.1796 14.069C15.5467 14.069 12.9735 14.8493 10.7888 16.3104C10.6637 16.4004 10.5333 16.4825 10.398 16.5564H10.2157C10.0804 16.4825 9.94996 16.4004 9.82497 16.3104C7.65931 14.8147 5.07696 14.0311 2.44055 14.0697H0.877719ZM31.1056 22.1903C31.9078 21.569 32.9022 21.2439 33.9188 21.2708H36.0156V17.1133H33.9188C32.1282 17.0918 30.3788 17.646 28.9307 18.6934C28.1158 19.2909 27.1299 19.6132 26.1175 19.6132C25.1052 19.6132 24.1194 19.2909 23.3044 18.6934C21.8196 17.6656 20.0539 17.1146 18.2448 17.1146C16.4356 17.1146 14.6699 17.6656 13.1851 18.6934C12.3701 19.2909 11.3843 19.6132 10.372 19.6132C9.35955 19.6132 8.37374 19.2909 7.55886 18.6934C6.09291 17.6326 4.3183 17.0777 2.50567 17.1133H0.34375V21.2708H2.44055C3.45706 21.2439 4.4514 21.569 5.25366 22.1903C6.73576 23.2188 8.49954 23.7703 10.3068 23.7703C12.1141 23.7703 13.8779 23.2188 15.3601 22.1903C16.1633 21.5708 17.1569 21.2461 18.1731 21.2708C19.1899 21.2418 20.185 21.567 20.9862 22.1903C22.471 23.2181 24.2368 23.7691 26.0459 23.7691C27.855 23.7691 29.6208 23.2181 31.1056 22.1903ZM31.1056 29.6244C31.9078 29.0031 32.9022 28.678 33.9188 28.7049H36.0156V24.5475H33.9188C32.1282 24.5259 30.3788 25.0801 28.9307 26.1275C28.1158 26.725 27.1299 27.0473 26.1175 27.0473C25.1052 27.0473 24.1194 26.725 23.3044 26.1275C21.8196 25.0996 20.0539 24.5487 18.2448 24.5487C16.4356 24.5487 14.6699 25.0996 13.1851 26.1275C12.3701 26.725 11.3843 27.0473 10.372 27.0473C9.35955 27.0473 8.37374 26.725 7.55886 26.1275C6.09291 25.0667 4.3183 24.5118 2.50567 24.5475H0.34375V28.7049H2.44055C3.45706 28.678 4.4514 29.0031 5.25366 29.6244C6.73576 30.653 8.49954 31.2044 10.3068 31.2044C12.1141 31.2044 13.8779 30.653 15.3601 29.6244C16.1633 29.005 17.1569 28.6802 18.1731 28.7049C19.1899 28.6759 20.185 29.0011 20.9862 29.6244C22.471 30.6522 24.2368 31.2033 26.0459 31.2033C27.855 31.2033 29.6208 30.6522 31.1056 29.6244Z" fill="#282938"/>
</g>
<defs>
<clipPath id="clip0_904_1069">
<rect width="153.743" height="32" fill="white"/>
</clipPath>
</defs>
</svg>
