<svg xmlns="http://www.w3.org/2000/svg" style="display:none;">
  <!-- Facebook -->
  <symbol id="icon-facebook" viewBox="0 0 512 512">
    <path d="M480,257.35c0-123.7-100.3-224-224-224s-224,100.3-224,224c0,111.8,81.9,204.47,189,221.29V322.12H164.11V257.35H221V208c0-56.13,33.45-87.16,84.61-87.16,24.51,0,50.15,4.38,50.15,4.38v55.13H327.5c-27.81,0-36.51,17.26-36.51,35v42h62.12l-9.92,64.77H291V478.66C398.1,461.85,480,369.18,480,257.35Z" fill="#ffffff"/>
  </symbol>

  <!-- Instagram -->
  <symbol id="icon-instagram" viewBox="0 0 512 512">
    <path d="M349.33,69.33a93.62,93.62,0,0,1,93.34,93.34V349.33a93.62,93.62,0,0,1-93.34,93.34H162.67a93.62,93.62,0,0,1-93.34-93.34V162.67a93.62,93.62,0,0,1,93.34-93.34H349.33m0-37.33H162.67C90.8,32,32,90.8,32,162.67V349.33C32,421.2,90.8,480,162.67,480H349.33C421.2,480,480,421.2,480,349.33V162.67C480,90.8,421.2,32,349.33,32Z" fill="#ffffff"/>
    <path d="M377.33,162.67a28,28,0,1,1,28-28A27.94,27.94,0,0,1,377.33,162.67Z" fill="#ffffff"/>
    <path d="M256,181.33A74.67,74.67,0,1,1,181.33,256,74.75,74.75,0,0,1,256,181.33M256,144A112,112,0,1,0,368,256,112,112,0,0,0,256,144Z" fill="#ffffff"/>
  </symbol>

  <!-- YouTube -->
  <symbol id="icon-youtube" viewBox="0 0 512 512">
    <path d="M508.64,148.79c0-45-33.1-81.2-74-81.2C379.24,65,322.74,64,265,64H247c-57.6,0-114.2,1-169.6,3.6-40.8,0-73.9,36.4-73.9,81.4C1,184.59-.06,220.19,0,255.79q-.15,53.4,3.4,106.9c0,45,33.1,81.5,73.9,81.5,58.2,2.7,117.9,3.9,178.6,3.8q91.2.3,178.6-3.8c40.9,0,74-36.5,74-81.5,2.4-35.7,3.5-71.3,3.4-107Q512.24,202.29,508.64,148.79ZM207,353.89V157.39l145,98.2Z" fill="#ffffff"/>
  </symbol>
</svg>
