<svg width="638" height="320" viewBox="0 0 638 320" fill="none" xmlns="http://www.w3.org/2000/svg">
<path d="M80 15.0456C80 6.73613 87.6225 0 97.0253 0H541.475C550.877 0 558.5 6.73614 558.5 15.0456V304.079C558.5 312.389 550.877 319.125 541.475 319.125H97.0253C87.6225 319.125 80 312.389 80 304.079V15.0456Z" fill="url(#paint0_linear_706_874)"/>
<path fill-rule="evenodd" clip-rule="evenodd" d="M541.225 1.58375H96.7753C88.3622 1.58375 81.5421 7.61082 81.5421 15.0456V304.079C81.5421 311.514 88.3622 317.541 96.7753 317.541H541.225C549.638 317.541 556.458 311.514 556.458 304.079V15.0456C556.458 7.61082 549.638 1.58375 541.225 1.58375ZM96.7753 0C87.3725 0 79.75 6.73614 79.75 15.0456V304.079C79.75 312.389 87.3725 319.125 96.7753 319.125H541.225C550.627 319.125 558.25 312.389 558.25 304.079V15.0456C558.25 6.73614 550.627 0 541.225 0H96.7753Z" fill="url(#paint1_linear_706_874)"/>
<path d="M364.699 249.046C364.699 245.765 367.71 243.104 371.425 243.104H390.761C394.475 243.104 397.486 245.765 397.486 249.046V266.129C397.486 269.411 394.475 272.071 390.761 272.071H371.425C367.71 272.071 364.699 269.411 364.699 266.129V249.046Z" fill="#51CB9C"/>
<path d="M376.263 263.159L370.583 257.576L376.263 252.018H378.974L373.27 257.576L378.974 263.159H376.263Z" fill="white"/>
<path d="M383.186 252.018H385.896L391.6 257.576L385.896 263.159H383.186L388.89 257.576L383.186 252.018Z" fill="white"/>
<path d="M258.066 91.4643C258.066 88.1827 261.078 85.5225 264.792 85.5225H284.128C287.842 85.5225 290.853 88.1827 290.853 91.4643V108.547C290.853 111.829 287.842 114.489 284.128 114.489H264.792C261.078 114.489 258.066 111.829 258.066 108.547V91.4643Z" fill="#1ABCFE"/>
<path fill-rule="evenodd" clip-rule="evenodd" d="M277.349 96.448L274.687 92.8486H266.7V108.446H282.673V96.448H277.349ZM280.572 98.3049H276.212L273.549 94.7055H268.802V106.589H280.572V98.3049Z" fill="white"/>
<path d="M425.631 123.93C425.631 120.649 428.642 117.988 432.356 117.988H451.692C455.407 117.988 458.418 120.649 458.418 123.93V141.013C458.418 144.295 455.407 146.955 451.692 146.955H432.356C428.642 146.955 425.631 144.295 425.631 141.013V123.93Z" fill="#FFC04A"/>
<path d="M434.039 131.723C435.399 131.499 436.079 130.88 436.079 129.867C436.079 129.42 436.013 128.654 435.879 127.57C435.746 126.415 435.679 125.579 435.679 125.061C435.679 124.212 435.946 123.564 436.479 123.117C437.026 122.669 437.753 122.445 438.659 122.445H439.82V123.841H438.999C438.479 123.841 438.093 123.947 437.839 124.159C437.586 124.36 437.459 124.695 437.459 125.167C437.459 125.508 437.486 125.932 437.539 126.439C437.593 126.934 437.626 127.27 437.639 127.446C437.773 128.577 437.839 129.402 437.839 129.92C437.839 130.545 437.659 131.069 437.299 131.493C436.953 131.905 436.413 132.182 435.679 132.323V132.359C436.413 132.5 436.953 132.783 437.299 133.207C437.659 133.631 437.839 134.155 437.839 134.78C437.839 135.298 437.773 136.123 437.639 137.254C437.626 137.43 437.593 137.772 437.539 138.279C437.486 138.773 437.459 139.192 437.459 139.533C437.459 140.005 437.586 140.34 437.839 140.541C438.093 140.753 438.479 140.859 438.999 140.859H439.82V142.255H438.659C437.753 142.255 437.026 142.031 436.479 141.583C435.946 141.135 435.679 140.488 435.679 139.639C435.679 139.121 435.746 138.285 435.879 137.13C436.013 136.046 436.079 135.28 436.079 134.833C436.079 133.82 435.399 133.201 434.039 132.977V131.723Z" fill="#1C1E53"/>
<path d="M450.255 132.977C448.895 133.201 448.215 133.82 448.215 134.833C448.215 135.28 448.282 136.046 448.415 137.13C448.548 138.285 448.615 139.121 448.615 139.639C448.615 140.488 448.342 141.135 447.795 141.583C447.262 142.031 446.541 142.255 445.635 142.255H444.475V140.859H445.295C445.815 140.859 446.201 140.753 446.455 140.541C446.708 140.34 446.835 140.005 446.835 139.533C446.835 139.192 446.808 138.773 446.755 138.279C446.701 137.772 446.668 137.43 446.655 137.254C446.521 136.123 446.455 135.298 446.455 134.78C446.455 134.155 446.628 133.631 446.975 133.207C447.335 132.783 447.882 132.5 448.615 132.359V132.323C447.882 132.182 447.335 131.905 446.975 131.493C446.628 131.069 446.455 130.545 446.455 129.92C446.455 129.402 446.521 128.577 446.655 127.446C446.668 127.27 446.701 126.934 446.755 126.439C446.808 125.932 446.835 125.508 446.835 125.167C446.835 124.695 446.708 124.36 446.455 124.159C446.201 123.947 445.815 123.841 445.295 123.841H444.475V122.445H445.635C446.541 122.445 447.262 122.669 447.795 123.117C448.342 123.564 448.615 124.212 448.615 125.061C448.615 125.579 448.548 126.415 448.415 127.57C448.282 128.654 448.215 129.42 448.215 129.867C448.215 130.88 448.895 131.499 450.255 131.723V132.977Z" fill="#1C1E53"/>
<path d="M0 89.481C0 84.2329 4.8142 79.9785 10.7528 79.9785H182.798C188.736 79.9785 193.551 84.2329 193.551 89.481V187.673C193.551 192.921 188.736 197.176 182.798 197.176H10.7528C4.8142 197.176 0 192.921 0 187.673V89.481Z" fill="url(#paint2_linear_706_874)"/>
<path fill-rule="evenodd" clip-rule="evenodd" d="M182.798 81.5623H10.7528C5.80397 81.5623 1.79213 85.1076 1.79213 89.481V187.673C1.79213 192.047 5.80397 195.592 10.7528 195.592H182.798C187.747 195.592 191.758 192.047 191.758 187.673V89.481C191.758 85.1076 187.747 81.5623 182.798 81.5623ZM10.7528 79.9785C4.8142 79.9785 0 84.2329 0 89.481V187.673C0 192.921 4.8142 197.176 10.7528 197.176H182.798C188.736 197.176 193.551 192.921 193.551 187.673V89.481C193.551 84.2329 188.736 79.9785 182.798 79.9785H10.7528Z" fill="url(#paint3_linear_706_874)"/>
<path d="M21.5059 110.863C21.5059 108.239 23.913 106.111 26.8823 106.111H77.062C80.0313 106.111 82.4384 108.239 82.4384 110.863V161.542C82.4384 164.167 80.0313 166.294 77.062 166.294H26.8823C23.913 166.294 21.5059 164.167 21.5059 161.542V110.863Z" fill="white" fill-opacity="0.17"/>
<path d="M94.0859 110.467C94.0859 108.061 96.2924 106.111 99.0143 106.111H162.635C165.357 106.111 167.563 108.061 167.563 110.467C167.563 112.872 165.357 114.822 162.635 114.822H99.0143C96.2924 114.822 94.0859 112.872 94.0859 110.467Z" fill="white" fill-opacity="0.6"/>
<path d="M94.0859 127.096C94.0859 124.69 96.2924 122.74 99.0143 122.74H162.635C165.357 122.74 167.563 124.69 167.563 127.096C167.563 129.501 165.357 131.451 162.635 131.451H99.0143C96.2924 131.451 94.0859 129.501 94.0859 127.096Z" fill="white" fill-opacity="0.26"/>
<path d="M94.0859 154.811C94.0859 146.72 101.508 140.161 110.663 140.161H111.559C120.715 140.161 128.136 146.72 128.136 154.811C128.136 162.902 120.715 169.46 111.559 169.46H110.663C101.508 169.46 94.0859 162.902 94.0859 154.811Z" fill="#767799"/>
<path d="M90.5039 29.6953C90.5039 20.7299 98.7282 13.4619 108.873 13.4619H521.96C532.105 13.4619 540.33 20.7299 540.33 29.6953C540.33 38.6608 532.105 45.9287 521.96 45.9287H108.873C98.7281 45.9287 90.5039 38.6608 90.5039 29.6953Z" fill="url(#paint4_linear_706_874)"/>
<path d="M465.955 176.587C465.955 171.339 470.769 167.085 476.708 167.085H627.247C633.186 167.085 638 171.339 638 176.587V274.78C638 280.028 633.186 284.282 627.247 284.282H476.708C470.769 284.282 465.955 280.028 465.955 274.78V176.587Z" fill="url(#paint5_linear_706_874)"/>
<path fill-rule="evenodd" clip-rule="evenodd" d="M627.247 168.669H476.708C471.759 168.669 467.747 172.214 467.747 176.587V274.78C467.747 279.153 471.759 282.698 476.708 282.698H627.247C632.196 282.698 636.208 279.153 636.208 274.78V176.587C636.208 172.214 632.196 168.669 627.247 168.669ZM476.708 167.085C470.769 167.085 465.955 171.339 465.955 176.587V274.78C465.955 280.028 470.769 284.282 476.708 284.282H627.247C633.186 284.282 638 280.028 638 274.78V176.587C638 171.339 633.186 167.085 627.247 167.085H476.708Z" fill="url(#paint6_linear_706_874)"/>
<path d="M481.885 186.089C481.885 184.34 483.489 182.922 485.469 182.922H618.485C620.465 182.922 622.07 184.34 622.07 186.089C622.07 187.839 620.465 189.257 618.485 189.257H485.469C483.489 189.257 481.885 187.839 481.885 186.089Z" fill="url(#paint7_linear_706_874)"/>
<path d="M481.885 201.927C481.885 200.178 483.489 198.76 485.469 198.76H528.48C530.46 198.76 532.065 200.178 532.065 201.927C532.065 203.677 530.46 205.095 528.48 205.095H485.469C483.489 205.095 481.885 203.677 481.885 201.927Z" fill="url(#paint8_linear_706_874)"/>
<path d="M538.437 201.927C538.437 200.178 540.041 198.76 542.021 198.76H558.747C560.727 198.76 562.332 200.178 562.332 201.927C562.332 203.677 560.727 205.095 558.747 205.095H542.021C540.041 205.095 538.437 203.677 538.437 201.927Z" fill="url(#paint9_linear_706_874)"/>
<path d="M481.885 265.278C481.885 263.528 483.489 262.11 485.469 262.11H528.48C530.46 262.11 532.065 263.528 532.065 265.278C532.065 267.027 530.46 268.445 528.48 268.445H485.469C483.489 268.445 481.885 267.027 481.885 265.278Z" fill="url(#paint10_linear_706_874)"/>
<path d="M538.437 265.278C538.437 263.528 540.041 262.11 542.021 262.11H558.747C560.727 262.11 562.332 263.528 562.332 265.278C562.332 267.027 560.727 268.445 558.747 268.445H542.021C540.041 268.445 538.437 267.027 538.437 265.278Z" fill="url(#paint11_linear_706_874)"/>
<path d="M510.56 233.602C510.56 231.853 512.164 230.435 514.144 230.435H526.091C528.071 230.435 529.676 231.853 529.676 233.602C529.676 235.351 528.071 236.77 526.091 236.77H514.144C512.164 236.77 510.56 235.351 510.56 233.602Z" fill="url(#paint12_linear_706_874)"/>
<path d="M536.845 233.602C536.845 231.853 538.449 230.435 540.429 230.435H591.405C593.385 230.435 594.99 231.853 594.99 233.602C594.99 235.351 593.385 236.77 591.405 236.77H540.429C538.449 236.77 536.845 235.351 536.845 233.602Z" fill="url(#paint13_linear_706_874)"/>
<path d="M481.885 233.602C481.885 231.853 483.489 230.435 485.469 230.435H502.196C504.175 230.435 505.78 231.853 505.78 233.602C505.78 235.351 504.175 236.77 502.196 236.77H485.469C483.489 236.77 481.885 235.351 481.885 233.602Z" fill="url(#paint14_linear_706_874)"/>
<path d="M481.885 217.764C481.885 216.015 483.489 214.597 485.469 214.597H543.614C545.593 214.597 547.198 216.015 547.198 217.764C547.198 219.514 545.593 220.932 543.614 220.932H485.469C483.489 220.932 481.885 219.514 481.885 217.764Z" fill="url(#paint15_linear_706_874)"/>
<path d="M552.774 217.764C552.774 216.015 554.379 214.597 556.359 214.597H583.44C585.419 214.597 587.024 216.015 587.024 217.764C587.024 219.514 585.419 220.932 583.44 220.932H556.359C554.379 220.932 552.774 219.514 552.774 217.764Z" fill="url(#paint16_linear_706_874)"/>
<path d="M481.885 249.44C481.885 247.691 483.489 246.272 485.469 246.272H543.614C545.593 246.272 547.198 247.691 547.198 249.44C547.198 251.189 545.593 252.607 543.614 252.607H485.469C483.489 252.607 481.885 251.189 481.885 249.44Z" fill="url(#paint17_linear_706_874)"/>
<path d="M123.343 29.8732C123.343 32.8721 120.591 35.3031 117.197 35.3031C113.802 35.3031 111.051 32.8721 111.051 29.8732C111.051 26.8744 113.802 24.4434 117.197 24.4434C120.591 24.4434 123.343 26.8744 123.343 29.8732Z" fill="#FED280"/>
<path d="M144.855 29.8732C144.855 32.8721 142.103 35.3031 138.709 35.3031C135.314 35.3031 132.562 32.8721 132.562 29.8732C132.562 26.8744 135.314 24.4434 138.709 24.4434C142.103 24.4434 144.855 26.8744 144.855 29.8732Z" fill="#8CFEE3" fill-opacity="0.9"/>
<path d="M166.368 29.8732C166.368 32.8721 163.617 35.3031 160.222 35.3031C156.828 35.3031 154.076 32.8721 154.076 29.8732C154.076 26.8744 156.828 24.4434 160.222 24.4434C163.617 24.4434 166.368 26.8744 166.368 29.8732Z" fill="#FF8DA9" fill-opacity="0.9"/>
<path d="M48.0291 134.992C46.3382 133.043 43.2716 133.181 41.7627 135.274L30.4503 150.968C28.5431 153.613 30.4337 157.307 33.6951 157.307H70.296C73.6725 157.307 75.53 153.381 73.389 150.77L67.3315 143.383C65.855 141.583 63.1587 141.419 61.4751 143.027L60.9692 143.511C59.3174 145.089 56.6814 144.966 55.1843 143.24L48.0291 134.992Z" fill="white"/>
<path d="M71.479 123.744C71.479 126.587 68.8713 128.891 65.6545 128.891C62.4378 128.891 59.8301 126.587 59.8301 123.744C59.8301 120.901 62.4378 118.597 65.6545 118.597C68.8713 118.597 71.479 120.901 71.479 123.744Z" fill="#C4C5DC"/>
<path fill-rule="evenodd" clip-rule="evenodd" d="M192.43 135.41C192.43 134.863 192.931 134.42 193.55 134.42H327.08V157.731C327.08 158.278 326.578 158.721 325.96 158.721C325.341 158.721 324.84 158.278 324.84 157.731V136.4H193.55C192.931 136.4 192.43 135.956 192.43 135.41Z" fill="url(#paint18_linear_706_874)"/>
<path fill-rule="evenodd" clip-rule="evenodd" d="M467.075 225.683C467.075 226.23 466.574 226.673 465.955 226.673L325.256 226.673L325.256 204.245C325.256 203.699 325.758 203.255 326.376 203.255C326.995 203.255 327.497 203.699 327.497 204.245L327.497 224.693L465.955 224.693C466.574 224.693 467.075 225.136 467.075 225.683Z" fill="url(#paint19_linear_706_874)"/>
<g filter="url(#filter0_d_706_874)">
<path fill-rule="evenodd" clip-rule="evenodd" d="M324.056 176.35C324.05 176.542 324.089 176.633 324.287 176.634H329.06C329.924 176.69 330.697 176.881 331.351 177.252C331.805 177.51 332.137 177.816 332.387 178.155C332.83 178.758 333.081 179.626 333.217 180.328C333.275 180.631 333.302 180.914 333.24 181.046C333.21 181.108 333.166 181.149 333.107 181.169C332.779 181.279 332.432 180.901 332.247 180.72C331.367 179.859 330.088 179.502 328.579 179.435H324.216C324.06 179.458 324.004 179.555 324.02 179.704V180.732C324.011 181.074 323.805 181.19 323.397 181.075L319.64 178.607L319.27 178.365L319.176 178.303C318.874 178.075 318.998 177.869 319.269 177.69L319.556 177.501L323.156 175.13C323.595 174.84 324.056 174.763 324.056 175.387V176.35ZM328.236 186.843C328.242 186.652 328.203 186.56 328.005 186.56H323.232C322.368 186.503 321.595 186.312 320.941 185.941C320.484 185.682 320.151 185.374 319.901 185.032C319.448 184.413 319.153 183.406 319.044 182.684C319.01 182.453 319.002 182.252 319.052 182.148C319.082 182.086 319.126 182.044 319.185 182.024C319.513 181.914 319.86 182.292 320.045 182.473C320.925 183.334 322.205 183.691 323.713 183.758H328.076C328.232 183.735 328.288 183.639 328.272 183.489V182.461C328.281 182.12 328.487 182.003 328.895 182.119L332.652 184.586L333.022 184.828L333.116 184.89C333.418 185.118 333.294 185.325 333.023 185.503L332.736 185.692L329.137 188.064C328.697 188.353 328.237 188.431 328.237 187.807L328.236 186.843Z" fill="#88F1DB"/>
</g>
<path d="M326 164.488C336.613 164.488 345 172.067 345 181.163C345 190.259 336.613 197.837 326 197.837C315.387 197.837 307 190.259 307 181.163C307 172.067 315.387 164.488 326 164.488Z" stroke="white" stroke-width="2"/>
<path d="M248.211 135.41C248.211 139.783 244.2 143.329 239.251 143.329C234.302 143.329 230.29 139.783 230.29 135.41C230.29 131.037 234.302 127.491 239.251 127.491C244.2 127.491 248.211 131.037 248.211 135.41Z" fill="#383A68"/>
<path fill-rule="evenodd" clip-rule="evenodd" d="M239.251 141.745C243.21 141.745 246.419 138.909 246.419 135.41C246.419 131.911 243.21 129.075 239.251 129.075C235.292 129.075 232.082 131.911 232.082 135.41C232.082 138.909 235.292 141.745 239.251 141.745ZM239.251 143.329C244.2 143.329 248.211 139.783 248.211 135.41C248.211 131.037 244.2 127.491 239.251 127.491C234.302 127.491 230.29 131.037 230.29 135.41C230.29 139.783 234.302 143.329 239.251 143.329Z" fill="#63648A"/>
<path d="M443.552 225.684C443.552 230.058 439.54 233.603 434.592 233.603C429.643 233.603 425.631 230.058 425.631 225.684C425.631 221.311 429.643 217.766 434.592 217.766C439.54 217.766 443.552 221.311 443.552 225.684Z" fill="#383A68"/>
<path fill-rule="evenodd" clip-rule="evenodd" d="M434.592 232.019C438.551 232.019 441.76 229.183 441.76 225.684C441.76 222.186 438.551 219.349 434.592 219.349C430.632 219.349 427.423 222.186 427.423 225.684C427.423 229.183 430.632 232.019 434.592 232.019ZM434.592 233.603C439.54 233.603 443.552 230.058 443.552 225.684C443.552 221.311 439.54 217.766 434.592 217.766C429.643 217.766 425.631 221.311 425.631 225.684C425.631 230.058 429.643 233.603 434.592 233.603Z" fill="#63648A"/>
<path d="M134.41 146.103C134.41 142.821 137.421 140.161 141.136 140.161H160.472C164.186 140.161 167.197 142.821 167.197 146.103V163.186C167.197 166.468 164.186 169.128 160.472 169.128H141.136C137.421 169.128 134.41 166.468 134.41 163.186V146.103Z" fill="#767799"/>
<path fill-rule="evenodd" clip-rule="evenodd" d="M154.065 162.952H148.007V160.724H154.065V162.952Z" fill="white"/>
<path fill-rule="evenodd" clip-rule="evenodd" d="M142.396 147.96H159.21V151.544H156.688V150.188H144.919V151.544H142.396V147.96Z" fill="white"/>
<path fill-rule="evenodd" clip-rule="evenodd" d="M149.699 161.963L149.854 149.199L152.376 149.223L152.22 161.987L149.699 161.963Z" fill="white"/>
<defs>
<filter id="filter0_d_706_874" x="305" y="164.912" width="42.292" height="41.3691" filterUnits="userSpaceOnUse" color-interpolation-filters="sRGB">
<feFlood flood-opacity="0" result="BackgroundImageFix"/>
<feColorMatrix in="SourceAlpha" type="matrix" values="0 0 0 0 0 0 0 0 0 0 0 0 0 0 0 0 0 0 127 0" result="hardAlpha"/>
<feOffset dy="4"/>
<feGaussianBlur stdDeviation="7"/>
<feComposite in2="hardAlpha" operator="out"/>
<feColorMatrix type="matrix" values="0 0 0 0 0.533333 0 0 0 0 0.945098 0 0 0 0 0.858824 0 0 0 1 0"/>
<feBlend mode="normal" in2="BackgroundImageFix" result="effect1_dropShadow_706_874"/>
<feBlend mode="normal" in="SourceGraphic" in2="effect1_dropShadow_706_874" result="shape"/>
</filter>
<linearGradient id="paint0_linear_706_874" x1="319.25" y1="0" x2="416.707" y2="469.18" gradientUnits="userSpaceOnUse">
<stop stop-color="white" stop-opacity="0.16"/>
<stop offset="1" stop-color="#C4C4C4" stop-opacity="0"/>
</linearGradient>
<linearGradient id="paint1_linear_706_874" x1="319" y1="1.18438e-05" x2="628.203" y2="252.417" gradientUnits="userSpaceOnUse">
<stop stop-color="white" stop-opacity="0.17"/>
<stop offset="1" stop-opacity="0"/>
</linearGradient>
<linearGradient id="paint2_linear_706_874" x1="41.8266" y1="111.448" x2="243.38" y2="408.398" gradientUnits="userSpaceOnUse">
<stop stop-color="#40416E"/>
<stop offset="1" stop-color="#5A5B8B"/>
</linearGradient>
<linearGradient id="paint3_linear_706_874" x1="96.7753" y1="79.9785" x2="161.926" y2="381.803" gradientUnits="userSpaceOnUse">
<stop stop-color="white" stop-opacity="0.17"/>
<stop offset="1" stop-opacity="0"/>
</linearGradient>
<linearGradient id="paint4_linear_706_874" x1="315.417" y1="13.4619" x2="369.632" y2="202.594" gradientUnits="userSpaceOnUse">
<stop stop-color="white" stop-opacity="0.15"/>
<stop offset="1" stop-color="#C4C4C4" stop-opacity="0"/>
</linearGradient>
<linearGradient id="paint5_linear_706_874" x1="797.652" y1="473.462" x2="379.3" y2="43.6835" gradientUnits="userSpaceOnUse">
<stop stop-color="#40416E"/>
<stop offset="1" stop-color="#5A5B8B"/>
</linearGradient>
<linearGradient id="paint6_linear_706_874" x1="551.978" y1="167.085" x2="624.416" y2="465.382" gradientUnits="userSpaceOnUse">
<stop stop-color="white" stop-opacity="0.17"/>
<stop offset="1" stop-opacity="0"/>
</linearGradient>
<linearGradient id="paint7_linear_706_874" x1="551.977" y1="182.922" x2="558.921" y2="221.612" gradientUnits="userSpaceOnUse">
<stop stop-color="white" stop-opacity="0.56"/>
<stop offset="1" stop-color="#C4C4C4" stop-opacity="0"/>
</linearGradient>
<linearGradient id="paint8_linear_706_874" x1="506.975" y1="198.76" x2="522.976" y2="230.673" gradientUnits="userSpaceOnUse">
<stop stop-color="#F9C746" stop-opacity="0.52"/>
<stop offset="1" stop-color="#C4C4C4" stop-opacity="0"/>
</linearGradient>
<linearGradient id="paint9_linear_706_874" x1="550.384" y1="198.76" x2="570.326" y2="217.699" gradientUnits="userSpaceOnUse">
<stop stop-color="#84EBE5" stop-opacity="0.62"/>
<stop offset="1" stop-color="#C4C4C4" stop-opacity="0"/>
</linearGradient>
<linearGradient id="paint10_linear_706_874" x1="506.975" y1="262.11" x2="522.976" y2="294.024" gradientUnits="userSpaceOnUse">
<stop stop-color="white" stop-opacity="0.56"/>
<stop offset="1" stop-color="#C4C4C4" stop-opacity="0"/>
</linearGradient>
<linearGradient id="paint11_linear_706_874" x1="550.384" y1="262.11" x2="570.326" y2="281.05" gradientUnits="userSpaceOnUse">
<stop stop-color="#F47D9E"/>
<stop offset="1" stop-color="#C4C4C4" stop-opacity="0"/>
</linearGradient>
<linearGradient id="paint12_linear_706_874" x1="520.118" y1="230.435" x2="539.355" y2="245.051" gradientUnits="userSpaceOnUse">
<stop stop-color="#F2C87D"/>
<stop offset="1" stop-color="#C4C4C4" stop-opacity="0"/>
</linearGradient>
<linearGradient id="paint13_linear_706_874" x1="565.917" y1="230.435" x2="580.472" y2="264.072" gradientUnits="userSpaceOnUse">
<stop stop-color="white" stop-opacity="0.62"/>
<stop offset="1" stop-color="#C4C4C4" stop-opacity="0"/>
</linearGradient>
<linearGradient id="paint14_linear_706_874" x1="488.257" y1="228.851" x2="524.734" y2="234.679" gradientUnits="userSpaceOnUse">
<stop stop-color="#F37D9D"/>
<stop offset="1" stop-color="#C4C4C4" stop-opacity="0"/>
</linearGradient>
<linearGradient id="paint15_linear_706_874" x1="514.541" y1="214.597" x2="527.938" y2="249.372" gradientUnits="userSpaceOnUse">
<stop stop-color="white" stop-opacity="0.58"/>
<stop offset="1" stop-color="#C4C4C4" stop-opacity="0"/>
</linearGradient>
<linearGradient id="paint16_linear_706_874" x1="569.899" y1="214.597" x2="588.954" y2="240.535" gradientUnits="userSpaceOnUse">
<stop stop-color="white" stop-opacity="0.45"/>
<stop offset="1" stop-color="#C4C4C4" stop-opacity="0"/>
</linearGradient>
<linearGradient id="paint17_linear_706_874" x1="514.541" y1="246.272" x2="527.938" y2="281.048" gradientUnits="userSpaceOnUse">
<stop stop-color="#70D1E7"/>
<stop offset="1" stop-color="#C4C4C4" stop-opacity="0"/>
</linearGradient>
<linearGradient id="paint18_linear_706_874" x1="314.831" y1="129.943" x2="139.229" y2="189.915" gradientUnits="userSpaceOnUse">
<stop stop-color="#767799"/>
<stop offset="1" stop-color="#767799" stop-opacity="0"/>
</linearGradient>
<linearGradient id="paint19_linear_706_874" x1="338.205" y1="231.15" x2="521.082" y2="165.363" gradientUnits="userSpaceOnUse">
<stop stop-color="#767799"/>
<stop offset="1" stop-color="#767799" stop-opacity="0"/>
</linearGradient>
</defs>
</svg>
